<svg width="204" height="164" viewBox="0 0 204 164" fill="none" xmlns="http://www.w3.org/2000/svg">
<path d="M102 1C46.3077 1 1 46.3077 1 102C1 104.396 2.9417 106.333 5.33333 106.333C7.72497 106.333 9.66667 104.396 9.66667 102C9.66667 51.089 51.089 9.66667 102 9.66667C152.911 9.66667 194.333 51.089 194.333 102C194.333 104.396 196.271 106.333 198.667 106.333C201.062 106.333 203 104.396 203 102C203 46.3077 157.692 1 102 1Z" fill="#FE0303" stroke="#FE0303" stroke-width="2"/>
<path d="M61.223 64.5561L61.2228 64.5563C50.3354 75.4471 44.3333 89.9314 44.3333 105.333C44.3333 120.735 50.3354 135.22 61.2228 146.11L61.223 146.111C72.1138 156.998 86.598 163 102 163C117.402 163 131.886 156.998 142.777 146.111L142.777 146.11C153.668 135.22 159.667 120.735 159.667 105.333C159.667 89.9315 153.668 75.4471 142.777 64.5562L142.777 64.5561C131.886 53.6688 117.402 47.6667 102 47.6667C86.598 47.6667 72.1138 53.6688 61.223 64.5561ZM136.646 139.979L136.646 139.98C127.39 149.235 115.091 154.333 102 154.333C88.9087 154.333 76.6097 149.235 67.3538 139.98C58.0979 130.724 53 118.425 53 105.333C53 92.2421 58.0979 79.943 67.3538 70.6871C76.6097 61.4312 88.9087 56.3333 102 56.3333C113.632 56.3333 124.612 60.398 133.413 67.7925L98.9362 102.27C97.2424 103.963 97.2424 106.703 98.9362 108.397C99.7809 109.242 100.892 109.667 102 109.667C103.108 109.667 104.219 109.242 105.064 108.397L139.541 73.9201C146.935 82.7212 151 93.7018 151 105.333C151 118.425 145.905 130.724 136.646 139.979Z" fill="#FE0303" stroke="#FE0303" stroke-width="2"/>
</svg>
