<svg width="661" height="200" viewBox="0 0 661 200" fill="none" xmlns="http://www.w3.org/2000/svg">
<path d="M102 20C46.86 20 2 64.86 2 120C2 121.843 3.49333 123.333 5.33333 123.333C7.17333 123.333 8.66667 121.843 8.66667 120C8.66667 68.5367 50.5367 26.6667 102 26.6667C153.463 26.6667 195.333 68.5367 195.333 120C195.333 121.843 196.823 123.333 198.667 123.333C200.51 123.333 202 121.843 202 120C202 64.86 157.14 20 102 20Z" fill="#FE0303"/>
<path d="M102 66.6667C86.8633 66.6667 72.6333 72.5633 61.93 83.2633C51.23 93.9667 45.3333 108.197 45.3333 123.333C45.3333 138.47 51.23 152.7 61.93 163.403C72.6333 174.103 86.8633 180 102 180C117.137 180 131.367 174.103 142.07 163.403C152.773 152.7 158.667 138.47 158.667 123.333C158.667 108.197 152.773 93.9667 142.07 83.2633C131.367 72.5633 117.137 66.6667 102 66.6667ZM137.353 158.687C127.91 168.13 115.357 173.333 102 173.333C88.6433 173.333 76.09 168.13 66.6467 158.687C57.2033 149.243 52 136.69 52 123.333C52 109.977 57.2033 97.4233 66.6467 87.98C76.09 78.5367 88.6433 73.3333 102 73.3333C114.237 73.3333 125.77 77.7433 134.883 85.7367L99.6433 120.977C98.34 122.28 98.34 124.387 99.6433 125.69C100.293 126.34 101.147 126.667 102 126.667C102.853 126.667 103.707 126.34 104.357 125.69L139.597 90.45C147.59 99.5633 152 111.097 152 123.333C152 136.69 146.8 149.243 137.353 158.687Z" fill="#FE0303"/>
<path d="M102 20C46.86 20 2 64.86 2 120C2 121.843 3.49333 123.333 5.33333 123.333C7.17333 123.333 8.66667 121.843 8.66667 120C8.66667 68.5367 50.5367 26.6667 102 26.6667C153.463 26.6667 195.333 68.5367 195.333 120C195.333 121.843 196.823 123.333 198.667 123.333C200.51 123.333 202 121.843 202 120C202 64.86 157.14 20 102 20Z" fill="#FE0303"/>
<path d="M102 66.6667C86.8633 66.6667 72.6333 72.5633 61.93 83.2633C51.23 93.9667 45.3333 108.197 45.3333 123.333C45.3333 138.47 51.23 152.7 61.93 163.403C72.6333 174.103 86.8633 180 102 180C117.137 180 131.367 174.103 142.07 163.403C152.773 152.7 158.667 138.47 158.667 123.333C158.667 108.197 152.773 93.9667 142.07 83.2633C131.367 72.5633 117.137 66.6667 102 66.6667ZM137.353 158.687C127.91 168.13 115.357 173.333 102 173.333C88.6433 173.333 76.09 168.13 66.6467 158.687C57.2033 149.243 52 136.69 52 123.333C52 109.977 57.2033 97.4233 66.6467 87.98C76.09 78.5367 88.6433 73.3333 102 73.3333C114.237 73.3333 125.77 77.7433 134.883 85.7367L99.6433 120.977C98.34 122.28 98.34 124.387 99.6433 125.69C100.293 126.34 101.147 126.667 102 126.667C102.853 126.667 103.707 126.34 104.357 125.69L139.597 90.45C147.59 99.5633 152 111.097 152 123.333C152 136.69 146.8 149.243 137.353 158.687Z" fill="#FE0303"/>
<path d="M273.032 152L237.176 52.928H250.136L280.52 136.736H281.24L311.768 52.928H324.296L288.584 152H273.032ZM376.145 130.304H342.641C342.641 134.976 342.961 138.304 343.601 140.288C344.241 142.272 345.617 143.68 347.729 144.512C349.905 145.28 353.521 145.664 358.577 145.664C363.505 145.664 368.721 145.312 374.225 144.608V151.424C372.177 151.808 369.521 152.128 366.257 152.384C362.993 152.64 359.889 152.768 356.945 152.768C350.353 152.768 345.489 152 342.353 150.464C339.281 148.928 337.265 146.464 336.305 143.072C335.345 139.68 334.865 134.528 334.865 127.616C334.865 120.832 335.281 115.744 336.113 112.352C337.009 108.96 338.961 106.432 341.969 104.768C345.041 103.104 349.873 102.272 356.465 102.272C362.609 102.272 367.057 103.104 369.809 104.768C372.561 106.368 374.289 108.832 374.993 112.16C375.761 115.424 376.145 120.544 376.145 127.52V130.304ZM356.273 109.376C352.113 109.376 349.105 109.76 347.249 110.528C345.457 111.232 344.241 112.608 343.601 114.656C343.025 116.64 342.705 119.872 342.641 124.352H368.657V123.584C368.657 119.36 368.273 116.256 367.505 114.272C366.801 112.288 365.617 110.976 363.953 110.336C362.289 109.696 359.729 109.376 356.273 109.376ZM423.816 124.448C423.816 119.904 423.528 116.672 422.952 114.752C422.376 112.768 421.288 111.456 419.688 110.816C418.088 110.176 415.4 109.856 411.624 109.856C407.592 109.856 404.616 110.496 402.696 111.776C400.84 113.056 399.656 114.816 399.144 117.056C398.696 119.296 398.472 122.528 398.472 126.752V152H390.696V80.672H398.472V109.472H398.952C399.976 107.168 401.704 105.408 404.136 104.192C406.632 102.976 410.184 102.368 414.792 102.368C419.528 102.368 423.08 103.04 425.448 104.384C427.88 105.664 429.512 107.648 430.344 110.336C431.176 112.96 431.592 116.64 431.592 121.376V152H423.816V124.448ZM447.877 89.6V80.672H456.133V89.6H447.877ZM448.165 152V103.04H455.941V152H448.165ZM503.644 151.52C501.916 151.84 499.804 152.128 497.308 152.384C494.876 152.64 492.54 152.768 490.3 152.768C484.284 152.768 479.868 151.904 477.052 150.176C474.236 148.448 472.412 145.888 471.58 142.496C470.812 139.104 470.428 134.112 470.428 127.52C470.428 121.056 470.908 116.064 471.868 112.544C472.828 109.024 474.716 106.432 477.532 104.768C480.348 103.104 484.508 102.272 490.012 102.272C492.188 102.272 494.492 102.4 496.924 102.656C499.42 102.912 501.532 103.2 503.26 103.52V110.432C499.42 109.728 495.644 109.376 491.932 109.376C487.836 109.376 484.828 109.856 482.908 110.816C481.052 111.776 479.804 113.472 479.164 115.904C478.524 118.336 478.204 122.208 478.204 127.52C478.204 132.896 478.524 136.832 479.164 139.328C479.868 141.76 481.148 143.424 483.004 144.32C484.924 145.216 487.996 145.664 492.22 145.664C495.356 145.664 499.164 145.344 503.644 144.704V151.52ZM652.258 152V80.672H660.034V152H652.258Z" fill="#FE0303"/>
<path d="M526.322 110.322L526.322 110.322C521.603 115.043 519 121.324 519 128C519 134.676 521.603 140.957 526.322 145.678L526.322 145.678C531.043 150.397 537.324 153 544 153C550.676 153 556.957 150.397 561.678 145.678L561.678 145.678C566.398 140.957 569 134.676 569 128C569 121.324 566.398 115.043 561.678 110.322L561.678 110.322C556.957 105.603 550.676 103 544 103C537.324 103 531.043 105.603 526.322 110.322ZM558.266 142.266L558.266 142.266C554.454 146.078 549.392 148.176 544 148.176C538.608 148.176 533.546 146.078 529.734 142.266C525.922 138.454 523.824 133.392 523.824 128C523.824 122.608 525.922 117.546 529.734 113.734L529.027 113.027L529.734 113.734C533.546 109.922 538.608 107.824 544 107.824C548.576 107.824 552.907 109.351 556.445 112.144L542.295 126.295C541.352 127.237 541.352 128.763 542.295 129.705C542.765 130.175 543.384 130.412 544 130.412C544.616 130.412 545.235 130.175 545.705 129.705L559.856 115.555C562.649 119.093 564.176 123.424 564.176 128C564.176 133.392 562.079 138.454 558.266 142.266Z" fill="#FE0303" stroke="#FE0303" stroke-width="2"/>
<g style="mix-blend-mode:multiply">
<path d="M592.322 110.322L592.322 110.322C587.603 115.043 585 121.324 585 128C585 134.676 587.603 140.957 592.322 145.678L592.322 145.678C597.043 150.397 603.324 153 610 153C616.676 153 622.957 150.397 627.678 145.678L627.678 145.678C632.398 140.957 635 134.676 635 128C635 121.324 632.398 115.043 627.678 110.322L627.678 110.322C622.957 105.603 616.676 103 610 103C603.324 103 597.043 105.603 592.322 110.322ZM624.266 142.266L624.266 142.266C620.454 146.078 615.392 148.176 610 148.176C604.608 148.176 599.546 146.078 595.734 142.266C591.922 138.454 589.824 133.392 589.824 128C589.824 122.608 591.922 117.546 595.734 113.734L595.027 113.027L595.734 113.734C599.546 109.922 604.608 107.824 610 107.824C614.576 107.824 618.907 109.351 622.445 112.144L608.295 126.295C607.352 127.237 607.352 128.763 608.295 129.705C608.765 130.175 609.384 130.412 610 130.412C610.616 130.412 611.235 130.175 611.705 129.705L625.856 115.555C628.649 119.093 630.176 123.424 630.176 128C630.176 133.392 628.079 138.454 624.266 142.266Z" fill="#FE0303"/>
<path d="M592.322 110.322L592.322 110.322C587.603 115.043 585 121.324 585 128C585 134.676 587.603 140.957 592.322 145.678L592.322 145.678C597.043 150.397 603.324 153 610 153C616.676 153 622.957 150.397 627.678 145.678L627.678 145.678C632.398 140.957 635 134.676 635 128C635 121.324 632.398 115.043 627.678 110.322L627.678 110.322C622.957 105.603 616.676 103 610 103C603.324 103 597.043 105.603 592.322 110.322ZM624.266 142.266L624.266 142.266C620.454 146.078 615.392 148.176 610 148.176C604.608 148.176 599.546 146.078 595.734 142.266C591.922 138.454 589.824 133.392 589.824 128C589.824 122.608 591.922 117.546 595.734 113.734L595.027 113.027L595.734 113.734C599.546 109.922 604.608 107.824 610 107.824C614.576 107.824 618.907 109.351 622.445 112.144L608.295 126.295C607.352 127.237 607.352 128.763 608.295 129.705C608.765 130.175 609.384 130.412 610 130.412C610.616 130.412 611.235 130.175 611.705 129.705L625.856 115.555C628.649 119.093 630.176 123.424 630.176 128C630.176 133.392 628.079 138.454 624.266 142.266Z" stroke="#FE0303" stroke-width="2"/>
</g>
<path d="M102 20C46.86 20 2 64.86 2 120C2 121.843 3.49333 123.333 5.33333 123.333C7.17333 123.333 8.66667 121.843 8.66667 120C8.66667 68.5367 50.5367 26.6667 102 26.6667C153.463 26.6667 195.333 68.5367 195.333 120C195.333 121.843 196.823 123.333 198.667 123.333C200.51 123.333 202 121.843 202 120C202 64.86 157.14 20 102 20Z" fill="#FE0303"/>
<path d="M102 66.6667C86.8633 66.6667 72.6333 72.5633 61.93 83.2633C51.23 93.9667 45.3333 108.197 45.3333 123.333C45.3333 138.47 51.23 152.7 61.93 163.403C72.6333 174.103 86.8633 180 102 180C117.137 180 131.367 174.103 142.07 163.403C152.773 152.7 158.667 138.47 158.667 123.333C158.667 108.197 152.773 93.9667 142.07 83.2633C131.367 72.5633 117.137 66.6667 102 66.6667ZM137.353 158.687C127.91 168.13 115.357 173.333 102 173.333C88.6433 173.333 76.09 168.13 66.6467 158.687C57.2033 149.243 52 136.69 52 123.333C52 109.977 57.2033 97.4233 66.6467 87.98C76.09 78.5367 88.6433 73.3333 102 73.3333C114.237 73.3333 125.77 77.7433 134.883 85.7367L99.6433 120.977C98.34 122.28 98.34 124.387 99.6433 125.69C100.293 126.34 101.147 126.667 102 126.667C102.853 126.667 103.707 126.34 104.357 125.69L139.597 90.45C147.59 99.5633 152 111.097 152 123.333C152 136.69 146.8 149.243 137.353 158.687Z" fill="#FE0303"/>
<path d="M102 19C46.3077 19 1 64.3077 1 120C1 122.396 2.9417 124.333 5.33333 124.333C7.72497 124.333 9.66667 122.396 9.66667 120C9.66667 69.089 51.089 27.6667 102 27.6667C152.911 27.6667 194.333 69.089 194.333 120C194.333 122.396 196.271 124.333 198.667 124.333C201.062 124.333 203 122.396 203 120C203 64.3077 157.692 19 102 19Z" fill="#FE0303" stroke="#FE0303" stroke-width="2"/>
<path d="M61.223 82.5561L61.2228 82.5563C50.3354 93.4471 44.3333 107.931 44.3333 123.333C44.3333 138.735 50.3354 153.22 61.2228 164.11L61.223 164.111C72.1138 174.998 86.598 181 102 181C117.402 181 131.886 174.998 142.777 164.111L142.777 164.11C153.668 153.22 159.667 138.735 159.667 123.333C159.667 107.931 153.668 93.4471 142.777 82.5562L142.777 82.5561C131.886 71.6688 117.402 65.6667 102 65.6667C86.598 65.6667 72.1138 71.6688 61.223 82.5561ZM136.646 157.979L136.646 157.98C127.39 167.235 115.091 172.333 102 172.333C88.9087 172.333 76.6097 167.235 67.3538 157.98C58.0979 148.724 53 136.425 53 123.333C53 110.242 58.0979 97.943 67.3538 88.6871C76.6097 79.4312 88.9087 74.3333 102 74.3333C113.631 74.3333 124.612 78.398 133.413 85.7925L98.9362 120.27C97.2424 121.963 97.2424 124.703 98.9362 126.397C99.7809 127.242 100.892 127.667 102 127.667C103.108 127.667 104.219 127.242 105.064 126.397L139.541 91.9201C146.935 100.721 151 111.702 151 123.333C151 136.425 145.905 148.724 136.646 157.979Z" fill="#FE0303" stroke="#FE0303" stroke-width="2"/>
</svg>
